Jump_normalized_Motion_pl11
version=1
nRows=21
nColumns=43
inDegrees=yes
endheader
time		pelvis_tilt		pelvis_list		pelvis_rotation		pelvis_tx		pelvis_ty		pelvis_tz		hip_flexion_r		hip_adduction_r		hip_rotation_r		knee_angle_r		ankle_angle_r		subtalar_angle_r		mtp_angle_r		hip_flexion_l		hip_adduction_l		hip_rotation_l		knee_angle_l		ankle_angle_l		subtalar_angle_l		mtp_angle_l		lumbar_extension		lumbar_bending		lumbar_rotation		neck_flexion		neck_lateral_bending		neck_rotation		arm_flex_r		arm_add_r		arm_rot_r		elbow_flex_r		pro_sup_r		wrist_flex_r		wrist_dev_r		hand_finger_flex_r		arm_flex_l		arm_add_l		arm_rot_l		elbow_flex_l		pro_sup_l		wrist_flex_l		wrist_dev_l		hand_finger_flex_l		
0.456667		-1.072364		-16.568384		93.510282		0.026984		1.790283		1.779102		68.869125		-4.499746		5.061290		-131.928001		28.935630		-1.690672		-1.431145		68.407050		1.360016		7.300598		-129.854008		31.195870		-12.039003		9.009451		-48.645460		-1.524731		0.213267		33.405328		1.779221		-4.135231		115.759687		-15.090518		37.489084		57.500262		61.956584		-36.456825		5.830836		29.457611		108.427521		-2.395682		15.224337		64.575083		110.207708		-20.093393		22.618276		90.000210		
0.459596		-1.029531		-16.989160		93.532604		0.027042		1.791221		1.776073		68.792356		-4.473661		4.965706		-131.648115		28.930404		-1.750507		-1.448281		68.360319		1.339158		7.301329		-129.597003		31.233787		-12.125855		8.997840		-48.237790		-1.524786		0.158335		33.604938		1.880227		-4.132093		116.927127		-14.725620		37.616381		57.210202		62.008844		-36.245404		5.729190		29.462130		109.664512		-2.200307		15.374374		64.220903		110.133065		-20.157969		22.523271		90.000210		
0.462525		-0.970596		-17.397700		93.577528		0.027124		1.792311		1.772855		68.674373		-4.427634		4.862300		-131.336662		28.902275		-1.819498		-1.473981		68.245288		1.288088		7.302774		-129.268050		31.224905		-12.212749		8.979335		-47.824573		-1.501367		0.097559		33.668230		1.954044		-4.125221		118.031194		-14.432260		37.801679		57.012155		62.073686		-35.959335		5.584430		29.490549		110.803235		-2.050883		15.547715		63.957664		110.010722		-20.226448		22.401249		90.000210		
0.465455		-0.836684		-17.689915		93.617339		0.026985		1.793544		1.769469		68.393056		-4.381977		4.660519		-131.009204		28.806521		-2.015016		-1.558546		68.062909		1.249809		7.378660		-129.040402		31.123945		-12.395749		8.928684		-47.516699		-1.404104		0.183034		33.581377		2.000547		-4.108446		119.242774		-14.296351		38.270048		56.719269		62.181874		-35.254512		5.136514		29.567036		111.947087		-2.024754		15.944448		63.781045		109.524767		-20.407698		22.072691		90.000210		
0.468384		-0.792900		-18.119287		93.619313		0.026911		1.794643		1.765969		68.264887		-4.364039		4.593878		-130.682160		28.806116		-2.010611		-1.568561		67.955073		1.215904		7.353513		-128.747789		31.142893		-12.426806		8.925251		-47.057657		-1.392016		0.164739		33.545424		2.015889		-4.118252		120.108850		-13.987126		38.147572		56.721643		62.225983		-35.222911		4.998233		29.533072		112.908896		-1.828933		15.876269		63.694056		109.489403		-20.476854		21.989713		90.000210		
0.471313		-0.716343		-18.564927		93.632178		0.026968		1.795671		1.762704		68.177962		-4.302002		4.485774		-130.357529		28.806695		-2.043431		-1.593200		67.910848		1.158212		7.377982		-128.456440		31.167068		-12.529248		8.914949		-46.594907		-1.377772		0.166330		33.732378		2.058608		-4.136436		121.162600		-13.632968		38.248891		56.385817		62.342726		-35.099792		4.748356		29.466724		114.111343		-1.607609		15.999841		63.234816		109.412666		-20.559607		21.850084		90.000210		
0.474242		-0.673500		-18.968098		93.623785		0.026844		1.796932		1.758985		67.989024		-4.287156		4.419634		-129.981808		28.772235		-2.052942		-1.613626		67.760279		1.129842		7.360541		-128.159590		31.134786		-12.567390		8.904400		-46.140671		-1.370904		0.190469		33.592323		2.095735		-4.150061		122.018071		-13.414081		38.255922		56.376931		62.429625		-35.015637		4.538551		29.431269		115.019007		-1.459175		16.033085		63.189422		109.359671		-20.613467		21.735406		90.000210		
0.477172		-0.597143		-19.187458		93.605451		0.026857		1.798547		1.755327		67.598415		-4.184073		4.294790		-129.584878		28.696860		-2.267652		-1.720857		67.417361		1.039171		7.351971		-127.827654		31.027844		-12.845909		8.863848		-45.919601		-1.337082		0.268185		33.667871		2.034168		-4.182457		123.173289		-13.217969		38.841845		55.939729		62.620883		-34.652722		3.429033		29.142611		116.201921		-1.380960		16.342337		62.752812		108.850440		-20.856460		21.139271		90.000210		
0.480101		-0.589884		-19.587994		93.570656		0.026814		1.799917		1.751579		67.398921		-4.170403		4.248917		-129.183447		28.671830		-2.287882		-1.751858		67.242212		1.016202		7.325557		-127.482443		30.998727		-12.899938		8.853934		-45.469416		-1.374214		0.261274		33.639960		2.070287		-4.203096		124.054217		-12.912299		38.887541		55.720584		62.644728		-34.631153		3.181022		29.005621		117.207201		-1.213428		16.409752		62.451242		108.778323		-20.939020		20.969681		90.000210		
0.483030		-0.604215		-19.996250		93.527792		0.026659		1.801352		1.747552		67.176567		-4.184061		4.237130		-128.743736		28.634930		-2.284306		-1.761860		67.040591		1.007845		7.264885		-127.122462		30.958312		-12.901770		8.848962		-44.984719		-1.416755		0.258645		33.479376		2.091631		-4.211634		124.793913		-12.687825		38.818971		55.737626		62.680707		-34.648066		3.061339		28.954424		118.030460		-1.075507		16.375089		62.412075		108.798612		-20.969254		20.891987		90.000210		
0.485960		-0.685736		-20.368894		93.425947		0.026730		1.802745		1.743802		66.979211		-4.153711		4.291775		-128.356805		28.587921		-2.363500		-1.776776		66.825442		0.974585		7.140250		-126.751445		30.891853		-12.984194		8.844031		-44.574541		-1.560045		0.209459		33.548853		2.128287		-4.232334		125.766000		-12.361151		39.008618		55.346240		62.770054		-34.682264		2.806971		28.811178		119.190086		-0.894698		16.530146		61.873442		108.879786		-20.983417		20.714972		90.000210		
0.488889		-0.755364		-20.730384		93.332569		0.026633		1.804322		1.739626		66.702857		-4.160143		4.332509		-127.910408		28.519730		-2.410483		-1.790251		66.541797		0.960143		7.012259		-126.357857		30.808824		-13.025596		8.839418		-44.135308		-1.668427		0.201856		33.399663		2.163630		-4.246864		126.529945		-12.155885		39.078581		55.262485		62.825533		-34.686614		2.587118		28.729689		120.042108		-0.781338		16.570171		61.753030		108.923213		-20.998653		20.551273		90.000210		
0.491818		-0.839869		-21.089859		93.213393		0.026647		1.805818		1.735548		66.451628		-4.140596		4.388764		-127.490497		28.459759		-2.492307		-1.795219		66.272752		0.921556		6.865233		-125.967125		30.724491		-13.099603		8.841578		-43.701587		-1.811652		0.185478		33.330159		2.181029		-4.266046		127.347953		-11.870077		39.149773		54.991713		62.878705		-34.707613		2.374662		28.644874		121.011463		-0.622859		16.626037		61.413100		109.019113		-21.013227		20.355067		90.000210		
0.494747		-0.882159		-21.472939		93.141951		0.026548		1.807383		1.731200		66.176850		-4.150992		4.396489		-127.030443		28.398954		-2.517522		-1.801709		65.996166		0.896048		6.761495		-125.548166		30.648404		-13.120366		8.840125		-43.211892		-1.893638		0.193914		33.155747		2.198591		-4.278332		128.009001		-11.666885		39.120330		54.943589		62.911194		-34.714415		2.232544		28.602742		121.765928		-0.496130		16.608787		61.354192		109.067874		-21.032503		20.226783		90.000210		
0.497677		-0.977541		-21.749549		92.966617		0.026728		1.808930		1.727009		65.855401		-4.077657		4.458359		-126.617102		28.287843		-2.664527		-1.799686		65.644369		0.805310		6.580422		-125.151397		30.498044		-13.258834		8.855305		-42.843097		-2.090390		0.206676		33.072835		2.234938		-4.329555		128.863503		-11.356754		39.263055		54.482308		62.977085		-34.705390		1.937842		28.517166		122.810045		-0.330976		16.749540		60.829951		109.222118		-21.036792		19.917125		90.000210		
0.500606		-0.983530		-22.100839		92.917077		0.026706		1.810664		1.722435		65.514208		-4.072645		4.417176		-126.145598		28.200769		-2.683861		-1.802634		65.306297		0.743375		6.506510		-124.700381		30.397760		-13.285803		8.859894		-42.375231		-2.147701		0.234303		32.866589		2.249614		-4.356317		129.446299		-11.181698		39.203383		54.441619		62.997462		-34.693616		1.787338		28.489472		123.484601		-0.200147		16.727549		60.794729		109.252816		-21.057128		19.781526		90.000210		
0.503535		-0.984570		-22.344519		92.822023		0.026867		1.812458		1.717887		65.085612		-4.003973		4.360281		-125.684847		28.065724		-2.771550		-1.798067		64.883887		0.628947		6.424576		-124.268167		30.240957		-13.391616		8.879825		-42.020840		-2.241673		0.290128		32.707298		2.278675		-4.421179		130.136300		-10.932336		39.222460		54.138973		63.027717		-34.665990		1.525370		28.431896		124.340494		-0.035752		16.790294		60.448724		109.319749		-21.072052		19.538719		90.000210		
0.506465		-0.850285		-22.326811		92.825145		0.027029		1.814914		1.712807		64.263681		-3.895284		4.115975		-125.124095		27.887031		-2.942054		-1.761938		64.122970		0.458291		6.486713		-123.783054		30.029492		-13.541032		8.957513		-41.954289		-2.192268		0.421477		32.563068		2.311881		-4.497708		130.796014		-10.771969		39.271642		53.940612		63.009918		-34.518234		1.040644		28.355690		125.086619		0.092412		16.834882		60.289986		109.244111		-21.085843		19.122366		90.000210		
0.509394		-0.747418		-22.435504		92.826514		0.027056		1.817128		1.707756		63.592327		-3.845011		3.913444		-124.574885		27.741807		-3.043354		-1.738051		63.512879		0.335011		6.515260		-123.310903		29.864897		-13.625717		9.013823		-41.730939		-2.147775		0.524512		32.407532		2.331688		-4.550941		131.379407		-10.603088		39.275425		53.804956		62.990207		-34.422091		0.701290		28.293060		125.762297		0.207419		16.832322		60.167652		109.184402		-21.104528		18.828101		90.000210		
0.512323		-0.721467		-22.810694		92.828162		0.026942		1.818876		1.702857		63.247740		-3.884961		3.810239		-124.070134		27.650515		-2.992540		-1.746434		63.203785		0.296152		6.477130		-122.836862		29.773421		-13.582178		9.012656		-41.193596		-2.147121		0.552893		32.196845		2.333879		-4.562395		131.830770		-10.442623		39.175227		53.802800		62.986555		-34.437100		0.655860		28.266593		126.296728		0.323279		16.758217		60.171024		109.173829		-21.128006		18.790993		90.000210		
0.515253		-0.292644		-22.383582		93.096858		0.026927		1.822003		1.697325		61.883998		-3.754988		3.182497		-123.418434		27.341644		-3.057548		-1.688572		62.069610		0.079462		6.919894		-122.394475		29.428207		-13.566871		9.148585		-41.558266		-1.730495		0.760631		32.056604		2.334904		-4.639125		132.595140		-10.113835		39.248444		53.290512		62.943735		-34.325120		0.184639		28.037658		127.171398		0.477175		16.747343		59.738086		108.967994		-21.132113		18.425217		90.000210		
